<svg xmlns="http://www.w3.org/2000/svg" width="1440" height="900" viewBox="0 0 1440 900">
<defs>
<filter id="shadow" x="-20%" y="-20%" width="140%" height="140%"><feDropShadow dx="0" dy="10" stdDeviation="18" flood-color="#6f7f99" flood-opacity=".12"/></filter>
<style>text{font-family:Inter,Meiryo,"Yu Gothic",sans-serif}.muted{fill:#64748b}.tiny{font-size:12px}.label{font-size:13px;fill:#526174}</style>
</defs>
<rect x="0" y="0" width="1440" height="900" rx="0" fill="#f6f8fc" stroke="none" stroke-width="1" opacity="1"/>
<rect x="16" y="16" width="1408" height="868" rx="14" fill="#fff" stroke="#cfd8e6" stroke-width="1.2" opacity="1"/>
<rect x="16" y="16" width="220" height="868" rx="14" fill="#fbfcff" stroke="#e6edf7" stroke-width="1" opacity="1"/>
<rect x="44" y="48" width="18" height="18" rx="4" fill="#2f7df6" stroke="#2f7df6" stroke-width="1" opacity="1"/><path d="M49 56h8M49 60h6" stroke="#fff" stroke-width="1.6" stroke-linecap="round"/>
<text x="74" y="62" font-size="14" font-weight="700" fill="#17233c" text-anchor="start">かけいぼノート</text>
<rect x="34" y="83" width="170" height="34" rx="6" fill="#eaf2ff" stroke="none" stroke-width="1" opacity="1"/>
<text x="62" y="105" font-size="13" font-weight="650" fill="#2f7df6" text-anchor="start">ダッシュボード</text>
<circle cx="45" cy="100" r="4" fill="#2f7df6" opacity="0.85"/>
<text x="62" y="147" font-size="13" font-weight="500" fill="#46566d" text-anchor="start">明細一覧</text>
<circle cx="45" cy="142" r="4" fill="#46566d" opacity="0.85"/>
<text x="62" y="189" font-size="13" font-weight="500" fill="#46566d" text-anchor="start">アップロード</text>
<circle cx="45" cy="184" r="4" fill="#46566d" opacity="0.85"/>
<text x="62" y="231" font-size="13" font-weight="500" fill="#46566d" text-anchor="start">カテゴリ管理</text>
<circle cx="45" cy="226" r="4" fill="#46566d" opacity="0.85"/>
<text x="62" y="273" font-size="13" font-weight="500" fill="#46566d" text-anchor="start">レポート</text>
<circle cx="45" cy="268" r="4" fill="#46566d" opacity="0.85"/>
<text x="62" y="315" font-size="13" font-weight="500" fill="#46566d" text-anchor="start">設定</text>
<circle cx="45" cy="310" r="4" fill="#46566d" opacity="0.85"/>
<rect x="36" y="710" width="168" height="86" rx="8" fill="#f7faff" stroke="#edf2fb" stroke-width="1" opacity="1"/>
<text x="120" y="746" font-size="11" font-weight="600" fill="#64748b" text-anchor="middle">PDFをアップロードして</text>
<text x="120" y="764" font-size="11" font-weight="600" fill="#64748b" text-anchor="middle">明細を自動で取込み</text>
<rect x="52" y="788" width="136" height="28" rx="5" fill="#2f7df6" stroke="#2f7df6" stroke-width="1" opacity="1"/>
<text x="120" y="806" font-size="11" font-weight="700" fill="#fff" text-anchor="middle">PDFをアップロード</text>
<text x="58" y="846" font-size="12" font-weight="500" fill="#64748b" text-anchor="start">ダークモード</text>
<rect x="166" y="834" width="30" height="16" rx="8" fill="#d7dee9" stroke="none" stroke-width="1" opacity="1"/>
<circle cx="174" cy="842" r="6" fill="#fff"/>
<text x="270" y="68" font-size="22" font-weight="800" fill="#17233c" text-anchor="start">ダッシュボード</text>
<rect x="270" y="120" width="230" height="104" rx="10" fill="#fff" stroke="#e1e8f3" stroke-width="1" opacity="1"/>
<circle cx="302" cy="150" r="14" fill="#2f7df6" opacity="0.16"/>
<text x="328" y="148" font-size="12" font-weight="700" fill="#64748b" text-anchor="start">今月の支出合計</text>
<text x="328" y="182" font-size="24" font-weight="800" fill="#17233c" text-anchor="start">¥128,450</text>
<text x="328" y="206" font-size="12" font-weight="700" fill="#16a36a" text-anchor="start">前月比 -12,450 (-10.7%)</text>
<rect x="520" y="120" width="230" height="104" rx="10" fill="#fff" stroke="#e1e8f3" stroke-width="1" opacity="1"/>
<circle cx="552" cy="150" r="14" fill="#32b66f" opacity="0.16"/>
<text x="578" y="148" font-size="12" font-weight="700" fill="#64748b" text-anchor="start">今月の収入合計</text>
<text x="578" y="182" font-size="24" font-weight="800" fill="#17233c" text-anchor="start">¥250,000</text>
<text x="578" y="206" font-size="12" font-weight="700" fill="#16a36a" text-anchor="start">前月比 ±0 (±0%)</text>
<rect x="770" y="120" width="230" height="104" rx="10" fill="#fff" stroke="#e1e8f3" stroke-width="1" opacity="1"/>
<circle cx="802" cy="150" r="14" fill="#9c72de" opacity="0.16"/>
<text x="828" y="148" font-size="12" font-weight="700" fill="#64748b" text-anchor="start">今月の収支</text>
<text x="828" y="182" font-size="24" font-weight="800" fill="#17233c" text-anchor="start">¥121,550</text>
<text x="828" y="206" font-size="12" font-weight="700" fill="#16a36a" text-anchor="start">前月比 -12,450 (-9.3%)</text>
<rect x="1020" y="120" width="230" height="104" rx="10" fill="#fff" stroke="#e1e8f3" stroke-width="1" opacity="1"/>
<circle cx="1052" cy="150" r="14" fill="#ff8b43" opacity="0.16"/>
<text x="1078" y="148" font-size="12" font-weight="700" fill="#64748b" text-anchor="start">取引件数</text>
<text x="1078" y="182" font-size="24" font-weight="800" fill="#17233c" text-anchor="start">48件</text>
<text x="1078" y="206" font-size="12" font-weight="700" fill="#16a36a" text-anchor="start">前月比 +6件 (+14.3%)</text>
<rect x="270" y="250" width="440" height="250" rx="10" fill="#fff" stroke="#e1e8f3" stroke-width="1" opacity="1"/>
<text x="288" y="280" font-size="15" font-weight="800" fill="#17233c" text-anchor="start">カテゴリ別支出割合</text>
<path d="M 405 370 L 405.0 288.0 A 82 82 0 0 1 486.8381917311183 375.1488226014037 Z" fill="#2f7df6" opacity="0.9"/>
<path d="M 405 370 L 486.8381917311183 375.1488226014037 A 82 82 0 0 1 435.18621332014357 446.24167184283664 Z" fill="#ff6b7a" opacity="0.9"/>
<path d="M 405 370 L 435.18621332014357 446.24167184283664 A 82 82 0 0 1 352.7312328406074 433.1820859076147 Z" fill="#64c97b" opacity="0.9"/>
<path d="M 405 370 L 352.7312328406074 433.1820859076147 A 82 82 0 0 1 323.1618082688817 364.8511773985963 Z" fill="#9c72de" opacity="0.9"/>
<path d="M 405 370 L 323.1618082688817 364.8511773985963 A 82 82 0 0 1 348.8671373138476 310.2245725514442 Z" fill="#74c7ea" opacity="0.9"/>
<path d="M 405 370 L 348.8671373138476 310.2245725514442 A 82 82 0 0 1 405.00000000000006 288.0 Z" fill="#d7dee9" opacity="0.9"/>
<circle cx="405" cy="370" r="44.28" fill="#fff"/>
<text x="405" y="362" font-size="13" font-weight="800" fill="#64748b" text-anchor="middle">合計</text>
<text x="405" y="390" font-size="18" font-weight="800" fill="#17233c" text-anchor="middle">¥128,450</text>
<text x="545" y="322" font-size="12" font-weight="700" fill="#526174" text-anchor="start">食費</text>
<text x="675" y="322" font-size="12" font-weight="600" fill="#526174" text-anchor="end">¥33,450  29.9%</text>
<text x="545" y="348" font-size="12" font-weight="700" fill="#526174" text-anchor="start">交通費</text>
<text x="675" y="348" font-size="12" font-weight="600" fill="#526174" text-anchor="end">¥15,200  11.8%</text>
<text x="545" y="374" font-size="12" font-weight="700" fill="#526174" text-anchor="start">日用品</text>
<text x="675" y="374" font-size="12" font-weight="600" fill="#526174" text-anchor="end">¥12,100  9.6%</text>
<text x="545" y="400" font-size="12" font-weight="700" fill="#526174" text-anchor="start">交際費</text>
<text x="675" y="400" font-size="12" font-weight="600" fill="#526174" text-anchor="end">¥18,600  14.5%</text>
<text x="545" y="426" font-size="12" font-weight="700" fill="#526174" text-anchor="start">通信費・娯楽</text>
<text x="675" y="426" font-size="12" font-weight="600" fill="#526174" text-anchor="end">¥16,800  13.1%</text>
<text x="545" y="452" font-size="12" font-weight="700" fill="#526174" text-anchor="start">その他</text>
<text x="675" y="452" font-size="12" font-weight="600" fill="#526174" text-anchor="end">¥27,100  21.1%</text>
<rect x="730" y="250" width="340" height="250" rx="10" fill="#fff" stroke="#e1e8f3" stroke-width="1" opacity="1"/>
<text x="748" y="280" font-size="15" font-weight="800" fill="#17233c" text-anchor="start">支出の推移</text>
<line x1="765" y1="450" x2="1035" y2="450" stroke="#dfe6f2" stroke-width="1"/>
<line x1="765" y1="330" x2="765" y2="450" stroke="#dfe6f2" stroke-width="1"/>
<rect x="799.0" y="379.4117647058823" width="28" height="70.58823529411765" rx="3" fill="#8fb8ff" stroke="none" stroke-width="1" opacity="1"/>
<text x="813.0" y="475" font-size="11" font-weight="600" fill="#64748b" text-anchor="middle">11月</text>
<rect x="835.3333333333334" y="361.7647058823529" width="28" height="88.23529411764707" rx="3" fill="#8fb8ff" stroke="none" stroke-width="1" opacity="1"/>
<text x="849.3333333333334" y="475" font-size="11" font-weight="600" fill="#64748b" text-anchor="middle">12月</text>
<rect x="871.6666666666666" y="342.70588235294116" width="28" height="107.29411764705883" rx="3" fill="#8fb8ff" stroke="none" stroke-width="1" opacity="1"/>
<text x="885.6666666666666" y="475" font-size="11" font-weight="600" fill="#64748b" text-anchor="middle">1月</text>
<rect x="908.0" y="356.8235294117647" width="28" height="93.17647058823529" rx="3" fill="#8fb8ff" stroke="none" stroke-width="1" opacity="1"/>
<text x="922.0" y="475" font-size="11" font-weight="600" fill="#64748b" text-anchor="middle">2月</text>
<rect x="944.3333333333334" y="373.7647058823529" width="28" height="76.23529411764706" rx="3" fill="#8fb8ff" stroke="none" stroke-width="1" opacity="1"/>
<text x="958.3333333333334" y="475" font-size="11" font-weight="600" fill="#64748b" text-anchor="middle">3月</text>
<rect x="980.6666666666666" y="344.8235294117647" width="28" height="105.17647058823529" rx="3" fill="#8fb8ff" stroke="none" stroke-width="1" opacity="1"/>
<text x="994.6666666666666" y="475" font-size="11" font-weight="600" fill="#64748b" text-anchor="middle">4月</text>
<rect x="1090" y="250" width="260" height="250" rx="10" fill="#fff" stroke="#e1e8f3" stroke-width="1" opacity="1"/>
<text x="1108" y="280" font-size="15" font-weight="800" fill="#17233c" text-anchor="start">最近の取引</text>
<text x="1110" y="320" font-size="12" font-weight="600" fill="#64748b" text-anchor="start">04/28</text>
<text x="1160" y="320" font-size="12" font-weight="600" fill="#17233c" text-anchor="start">セブン-イレブン</text>
<text x="1330" y="320" font-size="12" font-weight="700" fill="#17233c" text-anchor="end">¥842</text>
<text x="1110" y="354" font-size="12" font-weight="600" fill="#64748b" text-anchor="start">04/27</text>
<text x="1160" y="354" font-size="12" font-weight="600" fill="#17233c" text-anchor="start">Amazon.co.jp</text>
<text x="1330" y="354" font-size="12" font-weight="700" fill="#17233c" text-anchor="end">¥3,200</text>
<text x="1110" y="388" font-size="12" font-weight="600" fill="#64748b" text-anchor="start">04/27</text>
<text x="1160" y="388" font-size="12" font-weight="600" fill="#17233c" text-anchor="start">JR東日本</text>
<text x="1330" y="388" font-size="12" font-weight="700" fill="#17233c" text-anchor="end">¥1,320</text>
<text x="1110" y="422" font-size="12" font-weight="600" fill="#64748b" text-anchor="start">04/26</text>
<text x="1160" y="422" font-size="12" font-weight="600" fill="#17233c" text-anchor="start">Starbucks</text>
<text x="1330" y="422" font-size="12" font-weight="700" fill="#17233c" text-anchor="end">¥650</text>
<text x="1110" y="456" font-size="12" font-weight="600" fill="#64748b" text-anchor="start">04/25</text>
<text x="1160" y="456" font-size="12" font-weight="600" fill="#17233c" text-anchor="start">楽天モバイル</text>
<text x="1330" y="456" font-size="12" font-weight="700" fill="#17233c" text-anchor="end">¥1,078</text>
<text x="270" y="550" font-size="18" font-weight="800" fill="#17233c" text-anchor="start">明細一覧</text>
<rect x="470" y="528" width="330" height="36" rx="6" fill="#fff" stroke="#dfe6f2" stroke-width="1" opacity="1"/>
<text x="488" y="551" font-size="12" font-weight="500" fill="#94a3b8" text-anchor="start">店名、メモ、カテゴリで検索</text>
<rect x="820" y="528" width="190" height="36" rx="6" fill="#fff" stroke="#dfe6f2" stroke-width="1" opacity="1"/>
<text x="840" y="551" font-size="12" font-weight="600" fill="#64748b" text-anchor="start">期間を選択</text>
<rect x="1030" y="528" width="180" height="36" rx="6" fill="#fff" stroke="#dfe6f2" stroke-width="1" opacity="1"/>
<text x="1050" y="551" font-size="12" font-weight="600" fill="#64748b" text-anchor="start">すべてのカテゴリ</text>
<rect x="1285" y="528" width="132" height="36" rx="6" fill="#fff" stroke="#dfe6f2" stroke-width="1" opacity="1"/>
<text x="1351" y="551" font-size="12" font-weight="700" fill="#526174" text-anchor="middle">エクスポート</text>
<rect x="1435" y="528" width="132" height="36" rx="6" fill="#2f7df6" stroke="#2f7df6" stroke-width="1" opacity="1"/>
<text x="1501" y="551" font-size="12" font-weight="800" fill="#fff" text-anchor="middle">＋ 手動で追加</text>
<rect x="270" y="585" width="1080" height="214" rx="8" fill="#fff" stroke="#e7edf6" stroke-width="1" opacity="1"/>
<text x="288" y="615" font-size="12" font-weight="800" fill="#526174" text-anchor="start">日付</text>
<text x="418" y="615" font-size="12" font-weight="800" fill="#526174" text-anchor="start">店名</text>
<text x="648" y="615" font-size="12" font-weight="800" fill="#526174" text-anchor="start">カテゴリ</text>
<text x="808" y="615" font-size="12" font-weight="800" fill="#526174" text-anchor="start">金額</text>
<text x="948" y="615" font-size="12" font-weight="800" fill="#526174" text-anchor="start">支払い方法</text>
<text x="1108" y="615" font-size="12" font-weight="800" fill="#526174" text-anchor="start">メモ</text>
<text x="1292" y="615" font-size="12" font-weight="800" fill="#526174" text-anchor="start">操作</text>
<line x1="270" y1="631" x2="1350" y2="631" stroke="#edf2f7" stroke-width="1"/>
<text x="288" y="656" font-size="12" font-weight="600" fill="#17233c" text-anchor="start">2026/04/28</text>
<text x="418" y="656" font-size="12" font-weight="600" fill="#17233c" text-anchor="start">セブン-イレブン</text>
<rect x="643" y="641" width="54" height="20" rx="4" fill="#ff6b7a" stroke="none" stroke-width="1" opacity="0.16"/>
<text x="648" y="656" font-size="12" font-weight="600" fill="#ff6b7a" text-anchor="start">食費</text>
<text x="808" y="656" font-size="12" font-weight="600" fill="#17233c" text-anchor="start">¥842</text>
<text x="948" y="656" font-size="12" font-weight="600" fill="#17233c" text-anchor="start">クレジットカード</text>
<text x="1108" y="656" font-size="12" font-weight="600" fill="#17233c" text-anchor="start">朝食・おにぎり</text>
<text x="1278" y="656" font-size="15" font-weight="700" fill="#64748b" text-anchor="start">✎</text>
<text x="1316" y="656" font-size="15" font-weight="700" fill="#64748b" text-anchor="start">⌫</text>
<line x1="270" y1="673" x2="1350" y2="673" stroke="#edf2f7" stroke-width="1"/>
<text x="288" y="698" font-size="12" font-weight="600" fill="#17233c" text-anchor="start">2026/04/27</text>
<text x="418" y="698" font-size="12" font-weight="600" fill="#17233c" text-anchor="start">Amazon.co.jp</text>
<rect x="643" y="683" width="54" height="20" rx="4" fill="#eea932" stroke="none" stroke-width="1" opacity="0.16"/>
<text x="648" y="698" font-size="12" font-weight="600" fill="#eea932" text-anchor="start">日用品</text>
<text x="808" y="698" font-size="12" font-weight="600" fill="#17233c" text-anchor="start">¥3,200</text>
<text x="948" y="698" font-size="12" font-weight="600" fill="#17233c" text-anchor="start">クレジットカード</text>
<text x="1108" y="698" font-size="12" font-weight="600" fill="#17233c" text-anchor="start">洗剤・日用品</text>
<text x="1278" y="698" font-size="15" font-weight="700" fill="#64748b" text-anchor="start">✎</text>
<text x="1316" y="698" font-size="15" font-weight="700" fill="#64748b" text-anchor="start">⌫</text>
<line x1="270" y1="715" x2="1350" y2="715" stroke="#edf2f7" stroke-width="1"/>
<text x="288" y="740" font-size="12" font-weight="600" fill="#17233c" text-anchor="start">2026/04/27</text>
<text x="418" y="740" font-size="12" font-weight="600" fill="#17233c" text-anchor="start">JR東日本</text>
<rect x="643" y="725" width="54" height="20" rx="4" fill="#38a7e0" stroke="none" stroke-width="1" opacity="0.16"/>
<text x="648" y="740" font-size="12" font-weight="600" fill="#38a7e0" text-anchor="start">交通費</text>
<text x="808" y="740" font-size="12" font-weight="600" fill="#17233c" text-anchor="start">¥1,320</text>
<text x="948" y="740" font-size="12" font-weight="600" fill="#17233c" text-anchor="start">Suica</text>
<text x="1108" y="740" font-size="12" font-weight="600" fill="#17233c" text-anchor="start">通勤</text>
<text x="1278" y="740" font-size="15" font-weight="700" fill="#64748b" text-anchor="start">✎</text>
<text x="1316" y="740" font-size="15" font-weight="700" fill="#64748b" text-anchor="start">⌫</text>
<line x1="270" y1="757" x2="1350" y2="757" stroke="#edf2f7" stroke-width="1"/>
<text x="288" y="782" font-size="12" font-weight="600" fill="#17233c" text-anchor="start">2026/04/26</text>
<text x="418" y="782" font-size="12" font-weight="600" fill="#17233c" text-anchor="start">Starbucks</text>
<rect x="643" y="767" width="54" height="20" rx="4" fill="#35b979" stroke="none" stroke-width="1" opacity="0.16"/>
<text x="648" y="782" font-size="12" font-weight="600" fill="#35b979" text-anchor="start">飲食費</text>
<text x="808" y="782" font-size="12" font-weight="600" fill="#17233c" text-anchor="start">¥650</text>
<text x="948" y="782" font-size="12" font-weight="600" fill="#17233c" text-anchor="start">クレジットカード</text>
<text x="1108" y="782" font-size="12" font-weight="600" fill="#17233c" text-anchor="start">カフェラテ</text>
<text x="1278" y="782" font-size="15" font-weight="700" fill="#64748b" text-anchor="start">✎</text>
<text x="1316" y="782" font-size="15" font-weight="700" fill="#64748b" text-anchor="start">⌫</text>
</svg>