<svg xmlns="http://www.w3.org/2000/svg" width="1440" height="900" viewBox="0 0 1440 900">
<defs>
<filter id="shadow" x="-20%" y="-20%" width="140%" height="140%"><feDropShadow dx="0" dy="10" stdDeviation="18" flood-color="#6f7f99" flood-opacity=".12"/></filter>
<style>text{font-family:Inter,Meiryo,"Yu Gothic",sans-serif}.muted{fill:#64748b}.tiny{font-size:12px}.label{font-size:13px;fill:#526174}</style>
</defs>
<rect x="0" y="0" width="1440" height="900" rx="0" fill="#f6f8fc" stroke="none" stroke-width="1" opacity="1"/>
<rect x="16" y="16" width="1408" height="868" rx="14" fill="#fff" stroke="#cfd8e6" stroke-width="1.2" opacity="1"/>
<rect x="16" y="16" width="220" height="868" rx="14" fill="#fbfcff" stroke="#e6edf7" stroke-width="1" opacity="1"/>
<rect x="44" y="48" width="18" height="18" rx="4" fill="#2f7df6" stroke="#2f7df6" stroke-width="1" opacity="1"/><path d="M49 56h8M49 60h6" stroke="#fff" stroke-width="1.6" stroke-linecap="round"/>
<text x="74" y="62" font-size="14" font-weight="700" fill="#17233c" text-anchor="start">かけいぼノート</text>
<text x="62" y="105" font-size="13" font-weight="500" fill="#46566d" text-anchor="start">ダッシュボード</text>
<circle cx="45" cy="100" r="4" fill="#46566d" opacity="0.85"/>
<text x="62" y="147" font-size="13" font-weight="500" fill="#46566d" text-anchor="start">明細一覧</text>
<circle cx="45" cy="142" r="4" fill="#46566d" opacity="0.85"/>
<text x="62" y="189" font-size="13" font-weight="500" fill="#46566d" text-anchor="start">アップロード</text>
<circle cx="45" cy="184" r="4" fill="#46566d" opacity="0.85"/>
<text x="62" y="231" font-size="13" font-weight="500" fill="#46566d" text-anchor="start">カテゴリ管理</text>
<circle cx="45" cy="226" r="4" fill="#46566d" opacity="0.85"/>
<rect x="34" y="251" width="170" height="34" rx="6" fill="#eaf2ff" stroke="none" stroke-width="1" opacity="1"/>
<text x="62" y="273" font-size="13" font-weight="650" fill="#2f7df6" text-anchor="start">レポート</text>
<circle cx="45" cy="268" r="4" fill="#2f7df6" opacity="0.85"/>
<text x="62" y="315" font-size="13" font-weight="500" fill="#46566d" text-anchor="start">設定</text>
<circle cx="45" cy="310" r="4" fill="#46566d" opacity="0.85"/>
<rect x="36" y="710" width="168" height="86" rx="8" fill="#f7faff" stroke="#edf2fb" stroke-width="1" opacity="1"/>
<text x="120" y="746" font-size="11" font-weight="600" fill="#64748b" text-anchor="middle">PDFをアップロードして</text>
<text x="120" y="764" font-size="11" font-weight="600" fill="#64748b" text-anchor="middle">明細を自動で取込み</text>
<rect x="52" y="788" width="136" height="28" rx="5" fill="#2f7df6" stroke="#2f7df6" stroke-width="1" opacity="1"/>
<text x="120" y="806" font-size="11" font-weight="700" fill="#fff" text-anchor="middle">PDFをアップロード</text>
<text x="58" y="846" font-size="12" font-weight="500" fill="#64748b" text-anchor="start">ダークモード</text>
<rect x="166" y="834" width="30" height="16" rx="8" fill="#d7dee9" stroke="none" stroke-width="1" opacity="1"/>
<circle cx="174" cy="842" r="6" fill="#fff"/>
<text x="270" y="68" font-size="22" font-weight="800" fill="#17233c" text-anchor="start">レポート</text>
<rect x="395" y="48" width="80" height="32" rx="6" fill="#fff" stroke="#dfe6f2" stroke-width="1" opacity="1"/>
<text x="435" y="69" font-size="12" font-weight="700" fill="#526174" text-anchor="middle">月別</text>
<rect x="490" y="48" width="150" height="32" rx="6" fill="#fff" stroke="#dfe6f2" stroke-width="1" opacity="1"/>
<text x="565" y="69" font-size="12" font-weight="700" fill="#526174" text-anchor="middle">2026年4月</text>
<rect x="1210" y="48" width="120" height="32" rx="6" fill="#fff" stroke="#dfe6f2" stroke-width="1" opacity="1"/>
<text x="1270" y="69" font-size="12" font-weight="700" fill="#526174" text-anchor="middle">エクスポート</text>
<rect x="270" y="110" width="230" height="104" rx="10" fill="#fff" stroke="#e1e8f3" stroke-width="1" opacity="1"/>
<circle cx="302" cy="140" r="14" fill="#2f7df6" opacity="0.16"/>
<text x="328" y="138" font-size="12" font-weight="700" fill="#64748b" text-anchor="start">支出合計</text>
<text x="328" y="172" font-size="24" font-weight="800" fill="#17233c" text-anchor="start">¥128,450</text>
<text x="328" y="196" font-size="12" font-weight="700" fill="#16a36a" text-anchor="start">前月比 -10.7%</text>
<rect x="520" y="110" width="230" height="104" rx="10" fill="#fff" stroke="#e1e8f3" stroke-width="1" opacity="1"/>
<circle cx="552" cy="140" r="14" fill="#38a7e0" opacity="0.16"/>
<text x="578" y="138" font-size="12" font-weight="700" fill="#64748b" text-anchor="start">1日あたりの平均</text>
<text x="578" y="172" font-size="24" font-weight="800" fill="#17233c" text-anchor="start">¥4,282</text>
<text x="578" y="196" font-size="12" font-weight="700" fill="#16a36a" text-anchor="start">31日換算</text>
<rect x="770" y="110" width="230" height="104" rx="10" fill="#fff" stroke="#e1e8f3" stroke-width="1" opacity="1"/>
<circle cx="802" cy="140" r="14" fill="#ff6b7a" opacity="0.16"/>
<text x="828" y="138" font-size="12" font-weight="700" fill="#64748b" text-anchor="start">最大の支出</text>
<text x="828" y="172" font-size="24" font-weight="800" fill="#17233c" text-anchor="start">¥15,200</text>
<text x="828" y="196" font-size="12" font-weight="700" fill="#16a36a" text-anchor="start">交通費</text>
<rect x="1020" y="110" width="230" height="104" rx="10" fill="#fff" stroke="#e1e8f3" stroke-width="1" opacity="1"/>
<circle cx="1052" cy="140" r="14" fill="#f5b84b" opacity="0.16"/>
<text x="1078" y="138" font-size="12" font-weight="700" fill="#64748b" text-anchor="start">最小の支出</text>
<text x="1078" y="172" font-size="24" font-weight="800" fill="#17233c" text-anchor="start">¥120</text>
<text x="1078" y="196" font-size="12" font-weight="700" fill="#16a36a" text-anchor="start">日用品</text>
<rect x="270" y="250" width="420" height="260" rx="10" fill="#fff" stroke="#e1e8f3" stroke-width="1" opacity="1"/>
<text x="288" y="280" font-size="15" font-weight="800" fill="#17233c" text-anchor="start">カテゴリ別支出割合</text>
<path d="M 410 380 L 410.0 298.0 A 82 82 0 0 1 491.8381917311183 385.1488226014037 Z" fill="#2f7df6" opacity="0.9"/>
<path d="M 410 380 L 491.8381917311183 385.1488226014037 A 82 82 0 0 1 440.18621332014357 456.24167184283664 Z" fill="#ff6b7a" opacity="0.9"/>
<path d="M 410 380 L 440.18621332014357 456.24167184283664 A 82 82 0 0 1 357.7312328406074 443.1820859076147 Z" fill="#64c97b" opacity="0.9"/>
<path d="M 410 380 L 357.7312328406074 443.1820859076147 A 82 82 0 0 1 328.1618082688817 374.8511773985963 Z" fill="#9c72de" opacity="0.9"/>
<path d="M 410 380 L 328.1618082688817 374.8511773985963 A 82 82 0 0 1 353.8671373138476 320.2245725514442 Z" fill="#74c7ea" opacity="0.9"/>
<path d="M 410 380 L 353.8671373138476 320.2245725514442 A 82 82 0 0 1 410.00000000000006 298.0 Z" fill="#d7dee9" opacity="0.9"/>
<circle cx="410" cy="380" r="44.28" fill="#fff"/>
<text x="410" y="372" font-size="13" font-weight="800" fill="#64748b" text-anchor="middle">合計</text>
<text x="410" y="400" font-size="18" font-weight="800" fill="#17233c" text-anchor="middle">¥128,450</text>
<rect x="720" y="250" width="610" height="260" rx="10" fill="#fff" stroke="#e1e8f3" stroke-width="1" opacity="1"/>
<text x="738" y="280" font-size="15" font-weight="800" fill="#17233c" text-anchor="start">カテゴリ別支出推移</text>
<line x1="760" y1="455" x2="1280" y2="455" stroke="#dfe6f2" stroke-width="1"/>
<line x1="760" y1="325" x2="760" y2="455" stroke="#dfe6f2" stroke-width="1"/>
<rect x="794.0" y="438.75" width="28" height="16.25" rx="2" fill="#2f7df6" stroke="none" stroke-width="1" opacity="0.78"/>
<rect x="794.0" y="427.05" width="28" height="11.7" rx="2" fill="#ff6b7a" stroke="none" stroke-width="1" opacity="0.78"/>
<rect x="794.0" y="412.75" width="28" height="14.3" rx="2" fill="#64c97b" stroke="none" stroke-width="1" opacity="0.78"/>
<rect x="794.0" y="402.35" width="28" height="10.4" rx="2" fill="#9c72de" stroke="none" stroke-width="1" opacity="0.78"/>
<rect x="794.0" y="390.0" width="28" height="12.35" rx="2" fill="#f5b84b" stroke="none" stroke-width="1" opacity="0.78"/>
<text x="808.0" y="480" font-size="11" font-weight="600" fill="#64748b" text-anchor="middle">11月</text>
<rect x="872.0" y="434.6875" width="28" height="20.3125" rx="2" fill="#2f7df6" stroke="none" stroke-width="1" opacity="0.78"/>
<rect x="872.0" y="420.0625" width="28" height="14.625" rx="2" fill="#ff6b7a" stroke="none" stroke-width="1" opacity="0.78"/>
<rect x="872.0" y="402.1875" width="28" height="17.875" rx="2" fill="#64c97b" stroke="none" stroke-width="1" opacity="0.78"/>
<rect x="872.0" y="389.1875" width="28" height="13.0" rx="2" fill="#9c72de" stroke="none" stroke-width="1" opacity="0.78"/>
<rect x="872.0" y="373.75" width="28" height="15.4375" rx="2" fill="#f5b84b" stroke="none" stroke-width="1" opacity="0.78"/>
<text x="886.0" y="480" font-size="11" font-weight="600" fill="#64748b" text-anchor="middle">12月</text>
<rect x="950.0" y="430.3" width="28" height="24.7" rx="2" fill="#2f7df6" stroke="none" stroke-width="1" opacity="0.78"/>
<rect x="950.0" y="412.516" width="28" height="17.784" rx="2" fill="#ff6b7a" stroke="none" stroke-width="1" opacity="0.78"/>
<rect x="950.0" y="390.78000000000003" width="28" height="21.735999999999997" rx="2" fill="#64c97b" stroke="none" stroke-width="1" opacity="0.78"/>
<rect x="950.0" y="374.97200000000004" width="28" height="15.808" rx="2" fill="#9c72de" stroke="none" stroke-width="1" opacity="0.78"/>
<rect x="950.0" y="356.20000000000005" width="28" height="18.772" rx="2" fill="#f5b84b" stroke="none" stroke-width="1" opacity="0.78"/>
<text x="964.0" y="480" font-size="11" font-weight="600" fill="#64748b" text-anchor="middle">1月</text>
<rect x="1028.0" y="433.55" width="28" height="21.45" rx="2" fill="#2f7df6" stroke="none" stroke-width="1" opacity="0.78"/>
<rect x="1028.0" y="418.106" width="28" height="15.443999999999999" rx="2" fill="#ff6b7a" stroke="none" stroke-width="1" opacity="0.78"/>
<rect x="1028.0" y="399.23" width="28" height="18.875999999999998" rx="2" fill="#64c97b" stroke="none" stroke-width="1" opacity="0.78"/>
<rect x="1028.0" y="385.502" width="28" height="13.728" rx="2" fill="#9c72de" stroke="none" stroke-width="1" opacity="0.78"/>
<rect x="1028.0" y="369.2" width="28" height="16.302000000000003" rx="2" fill="#f5b84b" stroke="none" stroke-width="1" opacity="0.78"/>
<text x="1042.0" y="480" font-size="11" font-weight="600" fill="#64748b" text-anchor="middle">2月</text>
<rect x="1106.0" y="437.45" width="28" height="17.55" rx="2" fill="#2f7df6" stroke="none" stroke-width="1" opacity="0.78"/>
<rect x="1106.0" y="424.81399999999996" width="28" height="12.636" rx="2" fill="#ff6b7a" stroke="none" stroke-width="1" opacity="0.78"/>
<rect x="1106.0" y="409.36999999999995" width="28" height="15.444" rx="2" fill="#64c97b" stroke="none" stroke-width="1" opacity="0.78"/>
<rect x="1106.0" y="398.1379999999999" width="28" height="11.232000000000001" rx="2" fill="#9c72de" stroke="none" stroke-width="1" opacity="0.78"/>
<rect x="1106.0" y="384.7999999999999" width="28" height="13.338" rx="2" fill="#f5b84b" stroke="none" stroke-width="1" opacity="0.78"/>
<text x="1120.0" y="480" font-size="11" font-weight="600" fill="#64748b" text-anchor="middle">3月</text>
<rect x="1184.0" y="430.7875" width="28" height="24.2125" rx="2" fill="#2f7df6" stroke="none" stroke-width="1" opacity="0.78"/>
<rect x="1184.0" y="413.35450000000003" width="28" height="17.433" rx="2" fill="#ff6b7a" stroke="none" stroke-width="1" opacity="0.78"/>
<rect x="1184.0" y="392.0475" width="28" height="21.307000000000002" rx="2" fill="#64c97b" stroke="none" stroke-width="1" opacity="0.78"/>
<rect x="1184.0" y="376.55150000000003" width="28" height="15.496" rx="2" fill="#9c72de" stroke="none" stroke-width="1" opacity="0.78"/>
<rect x="1184.0" y="358.15000000000003" width="28" height="18.4015" rx="2" fill="#f5b84b" stroke="none" stroke-width="1" opacity="0.78"/>
<text x="1198.0" y="480" font-size="11" font-weight="600" fill="#64748b" text-anchor="middle">4月</text>
<rect x="270" y="540" width="1060" height="230" rx="10" fill="#fff" stroke="#e1e8f3" stroke-width="1" opacity="1"/>
<text x="288" y="570" font-size="15" font-weight="800" fill="#17233c" text-anchor="start">月別支出推移</text>
<polyline points="330,705 500,640 670,680 840,660 1010,715 1180,675" fill="none" stroke="#2f7df6" stroke-width="4"/>
<circle cx="330" cy="705" r="5" fill="#2f7df6"/>
<circle cx="500" cy="640" r="5" fill="#2f7df6"/>
<circle cx="670" cy="680" r="5" fill="#2f7df6"/>
<circle cx="840" cy="660" r="5" fill="#2f7df6"/>
<circle cx="1010" cy="715" r="5" fill="#2f7df6"/>
<circle cx="1180" cy="675" r="5" fill="#2f7df6"/>
</svg>