<svg xmlns="http://www.w3.org/2000/svg" width="1440" height="900" viewBox="0 0 1440 900">
<defs>
<filter id="shadow" x="-20%" y="-20%" width="140%" height="140%"><feDropShadow dx="0" dy="10" stdDeviation="18" flood-color="#6f7f99" flood-opacity=".12"/></filter>
<style>text{font-family:Inter,Meiryo,"Yu Gothic",sans-serif}.muted{fill:#64748b}.tiny{font-size:12px}.label{font-size:13px;fill:#526174}</style>
</defs>
<rect x="0" y="0" width="1440" height="900" rx="0" fill="#f6f8fc" stroke="none" stroke-width="1" opacity="1"/>
<rect x="16" y="16" width="1408" height="868" rx="14" fill="#fff" stroke="#cfd8e6" stroke-width="1.2" opacity="1"/>
<rect x="16" y="16" width="220" height="868" rx="14" fill="#fbfcff" stroke="#e6edf7" stroke-width="1" opacity="1"/>
<rect x="44" y="48" width="18" height="18" rx="4" fill="#2f7df6" stroke="#2f7df6" stroke-width="1" opacity="1"/><path d="M49 56h8M49 60h6" stroke="#fff" stroke-width="1.6" stroke-linecap="round"/>
<text x="74" y="62" font-size="14" font-weight="700" fill="#17233c" text-anchor="start">かけいぼノート</text>
<text x="62" y="105" font-size="13" font-weight="500" fill="#46566d" text-anchor="start">ダッシュボード</text>
<circle cx="45" cy="100" r="4" fill="#46566d" opacity="0.85"/>
<text x="62" y="147" font-size="13" font-weight="500" fill="#46566d" text-anchor="start">明細一覧</text>
<circle cx="45" cy="142" r="4" fill="#46566d" opacity="0.85"/>
<text x="62" y="189" font-size="13" font-weight="500" fill="#46566d" text-anchor="start">アップロード</text>
<circle cx="45" cy="184" r="4" fill="#46566d" opacity="0.85"/>
<text x="62" y="231" font-size="13" font-weight="500" fill="#46566d" text-anchor="start">カテゴリ管理</text>
<circle cx="45" cy="226" r="4" fill="#46566d" opacity="0.85"/>
<text x="62" y="273" font-size="13" font-weight="500" fill="#46566d" text-anchor="start">レポート</text>
<circle cx="45" cy="268" r="4" fill="#46566d" opacity="0.85"/>
<rect x="34" y="293" width="170" height="34" rx="6" fill="#eaf2ff" stroke="none" stroke-width="1" opacity="1"/>
<text x="62" y="315" font-size="13" font-weight="650" fill="#2f7df6" text-anchor="start">設定</text>
<circle cx="45" cy="310" r="4" fill="#2f7df6" opacity="0.85"/>
<rect x="36" y="710" width="168" height="86" rx="8" fill="#f7faff" stroke="#edf2fb" stroke-width="1" opacity="1"/>
<text x="120" y="746" font-size="11" font-weight="600" fill="#64748b" text-anchor="middle">PDFをアップロードして</text>
<text x="120" y="764" font-size="11" font-weight="600" fill="#64748b" text-anchor="middle">明細を自動で取込み</text>
<rect x="52" y="788" width="136" height="28" rx="5" fill="#2f7df6" stroke="#2f7df6" stroke-width="1" opacity="1"/>
<text x="120" y="806" font-size="11" font-weight="700" fill="#fff" text-anchor="middle">PDFをアップロード</text>
<text x="58" y="846" font-size="12" font-weight="500" fill="#64748b" text-anchor="start">ダークモード</text>
<rect x="166" y="834" width="30" height="16" rx="8" fill="#d7dee9" stroke="none" stroke-width="1" opacity="1"/>
<circle cx="174" cy="842" r="6" fill="#fff"/>
<text x="270" y="68" font-size="22" font-weight="800" fill="#17233c" text-anchor="start">設定</text>
<rect x="270" y="110" width="860" height="180" rx="10" fill="#fff" stroke="#e1e8f3" stroke-width="1" opacity="1"/>
<text x="288" y="140" font-size="15" font-weight="800" fill="#17233c" text-anchor="start">基本設定</text>
<text x="300" y="165" font-size="13" font-weight="800" fill="#526174" text-anchor="start">通貨</text>
<rect x="300" y="180" width="220" height="36" rx="6" fill="#fff" stroke="#dfe6f2" stroke-width="1" opacity="1"/>
<text x="318" y="203" font-size="12" font-weight="600" fill="#17233c" text-anchor="start">JPY（¥）</text>
<text x="590" y="165" font-size="13" font-weight="800" fill="#526174" text-anchor="start">タイムゾーン</text>
<rect x="590" y="180" width="260" height="36" rx="6" fill="#fff" stroke="#dfe6f2" stroke-width="1" opacity="1"/>
<text x="608" y="203" font-size="12" font-weight="600" fill="#17233c" text-anchor="start">（UTC+09:00）東京</text>
<rect x="270" y="320" width="860" height="180" rx="10" fill="#fff" stroke="#e1e8f3" stroke-width="1" opacity="1"/>
<text x="288" y="350" font-size="15" font-weight="800" fill="#17233c" text-anchor="start">表示設定</text>
<text x="300" y="375" font-size="13" font-weight="800" fill="#526174" text-anchor="start">1ページあたりの件数</text>
<rect x="300" y="390" width="220" height="36" rx="6" fill="#fff" stroke="#dfe6f2" stroke-width="1" opacity="1"/>
<text x="318" y="413" font-size="12" font-weight="600" fill="#17233c" text-anchor="start">10件</text>
<text x="590" y="375" font-size="13" font-weight="800" fill="#526174" text-anchor="start">日付の表示形式</text>
<rect x="590" y="390" width="260" height="36" rx="6" fill="#fff" stroke="#dfe6f2" stroke-width="1" opacity="1"/>
<text x="608" y="413" font-size="12" font-weight="600" fill="#17233c" text-anchor="start">YYYY/MM/DD</text>
<rect x="270" y="530" width="860" height="150" rx="10" fill="#fff" stroke="#e1e8f3" stroke-width="1" opacity="1"/>
<text x="288" y="560" font-size="15" font-weight="800" fill="#17233c" text-anchor="start">データ管理</text>
<rect x="300" y="585" width="180" height="36" rx="6" fill="#fff" stroke="#dfe6f2" stroke-width="1" opacity="1"/>
<text x="390" y="608" font-size="12" font-weight="700" fill="#526174" text-anchor="middle">データのエクスポート</text>
<rect x="500" y="585" width="180" height="36" rx="6" fill="#fff" stroke="#dfe6f2" stroke-width="1" opacity="1"/>
<text x="590" y="608" font-size="12" font-weight="700" fill="#526174" text-anchor="middle">すべてのデータを削除</text>
<rect x="270" y="710" width="860" height="110" rx="10" fill="#fff" stroke="#e1e8f3" stroke-width="1" opacity="1"/>
<text x="288" y="740" font-size="15" font-weight="800" fill="#17233c" text-anchor="start">その他</text>
<text x="300" y="775" font-size="13" font-weight="800" fill="#526174" text-anchor="start">ダークモード</text>
<rect x="430" y="762" width="34" height="18" rx="9" fill="#d7dee9" stroke="none" stroke-width="1" opacity="1"/>
<circle cx="439" cy="771" r="7" fill="#fff"/>
</svg>