<svg xmlns="http://www.w3.org/2000/svg" width="1440" height="900" viewBox="0 0 1440 900">
<defs>
<filter id="shadow" x="-20%" y="-20%" width="140%" height="140%"><feDropShadow dx="0" dy="10" stdDeviation="18" flood-color="#6f7f99" flood-opacity=".12"/></filter>
<style>text{font-family:Inter,Meiryo,"Yu Gothic",sans-serif}.muted{fill:#64748b}.tiny{font-size:12px}.label{font-size:13px;fill:#526174}</style>
</defs>
<rect x="0" y="0" width="1440" height="900" rx="0" fill="#f6f8fc" stroke="none" stroke-width="1" opacity="1"/>
<rect x="16" y="16" width="1408" height="868" rx="14" fill="#fff" stroke="#cfd8e6" stroke-width="1.2" opacity="1"/>
<rect x="16" y="16" width="220" height="868" rx="14" fill="#fbfcff" stroke="#e6edf7" stroke-width="1" opacity="1"/>
<rect x="44" y="48" width="18" height="18" rx="4" fill="#2f7df6" stroke="#2f7df6" stroke-width="1" opacity="1"/><path d="M49 56h8M49 60h6" stroke="#fff" stroke-width="1.6" stroke-linecap="round"/>
<text x="74" y="62" font-size="14" font-weight="700" fill="#17233c" text-anchor="start">かけいぼノート</text>
<text x="62" y="105" font-size="13" font-weight="500" fill="#46566d" text-anchor="start">ダッシュボード</text>
<circle cx="45" cy="100" r="4" fill="#46566d" opacity="0.85"/>
<text x="62" y="147" font-size="13" font-weight="500" fill="#46566d" text-anchor="start">明細一覧</text>
<circle cx="45" cy="142" r="4" fill="#46566d" opacity="0.85"/>
<text x="62" y="189" font-size="13" font-weight="500" fill="#46566d" text-anchor="start">アップロード</text>
<circle cx="45" cy="184" r="4" fill="#46566d" opacity="0.85"/>
<rect x="34" y="209" width="170" height="34" rx="6" fill="#eaf2ff" stroke="none" stroke-width="1" opacity="1"/>
<text x="62" y="231" font-size="13" font-weight="650" fill="#2f7df6" text-anchor="start">カテゴリ管理</text>
<circle cx="45" cy="226" r="4" fill="#2f7df6" opacity="0.85"/>
<text x="62" y="273" font-size="13" font-weight="500" fill="#46566d" text-anchor="start">レポート</text>
<circle cx="45" cy="268" r="4" fill="#46566d" opacity="0.85"/>
<text x="62" y="315" font-size="13" font-weight="500" fill="#46566d" text-anchor="start">設定</text>
<circle cx="45" cy="310" r="4" fill="#46566d" opacity="0.85"/>
<rect x="36" y="710" width="168" height="86" rx="8" fill="#f7faff" stroke="#edf2fb" stroke-width="1" opacity="1"/>
<text x="120" y="746" font-size="11" font-weight="600" fill="#64748b" text-anchor="middle">PDFをアップロードして</text>
<text x="120" y="764" font-size="11" font-weight="600" fill="#64748b" text-anchor="middle">明細を自動で取込み</text>
<rect x="52" y="788" width="136" height="28" rx="5" fill="#2f7df6" stroke="#2f7df6" stroke-width="1" opacity="1"/>
<text x="120" y="806" font-size="11" font-weight="700" fill="#fff" text-anchor="middle">PDFをアップロード</text>
<text x="58" y="846" font-size="12" font-weight="500" fill="#64748b" text-anchor="start">ダークモード</text>
<rect x="166" y="834" width="30" height="16" rx="8" fill="#d7dee9" stroke="none" stroke-width="1" opacity="1"/>
<circle cx="174" cy="842" r="6" fill="#fff"/>
<text x="270" y="68" font-size="22" font-weight="800" fill="#17233c" text-anchor="start">カテゴリ管理</text>
<rect x="1170" y="112" width="150" height="36" rx="6" fill="#2f7df6" stroke="#2f7df6" stroke-width="1" opacity="1"/>
<text x="1245" y="135" font-size="12" font-weight="800" fill="#fff" text-anchor="middle">＋ カテゴリを追加</text>
<rect x="270" y="165" width="1060" height="440" rx="10" fill="#fff" stroke="#e1e8f3" stroke-width="1" opacity="1"/>
<text x="300" y="205" font-size="12" font-weight="800" fill="#526174" text-anchor="start">カテゴリ名</text>
<text x="520" y="205" font-size="12" font-weight="800" fill="#526174" text-anchor="start">色</text>
<text x="600" y="205" font-size="12" font-weight="800" fill="#526174" text-anchor="start">説明</text>
<text x="1240" y="205" font-size="12" font-weight="800" fill="#526174" text-anchor="start">操作</text>
<line x1="270" y1="232" x2="1330" y2="232" stroke="#edf2f7" stroke-width="1"/>
<text x="300" y="262" font-size="13" font-weight="700" fill="#17233c" text-anchor="start">食費</text>
<circle cx="525" cy="257" r="8" fill="#ff6b7a"/>
<text x="570" y="262" font-size="13" font-weight="500" fill="#526174" text-anchor="start">食費・外食・食材など</text>
<text x="1240" y="262" font-size="15" font-weight="700" fill="#64748b" text-anchor="start">✎</text>
<text x="1286" y="262" font-size="15" font-weight="700" fill="#64748b" text-anchor="start">⌫</text>
<line x1="270" y1="280" x2="1330" y2="280" stroke="#edf2f7" stroke-width="1"/>
<text x="300" y="310" font-size="13" font-weight="700" fill="#17233c" text-anchor="start">交通費</text>
<circle cx="525" cy="305" r="8" fill="#60c6d1"/>
<text x="570" y="310" font-size="13" font-weight="500" fill="#526174" text-anchor="start">電車・バス・タクシー・ガソリンなど</text>
<text x="1240" y="310" font-size="15" font-weight="700" fill="#64748b" text-anchor="start">✎</text>
<text x="1286" y="310" font-size="15" font-weight="700" fill="#64748b" text-anchor="start">⌫</text>
<line x1="270" y1="328" x2="1330" y2="328" stroke="#edf2f7" stroke-width="1"/>
<text x="300" y="358" font-size="13" font-weight="700" fill="#17233c" text-anchor="start">日用品</text>
<circle cx="525" cy="353" r="8" fill="#f5c05f"/>
<text x="570" y="358" font-size="13" font-weight="500" fill="#526174" text-anchor="start">日用品・雑貨・ドラッグストアなど</text>
<text x="1240" y="358" font-size="15" font-weight="700" fill="#64748b" text-anchor="start">✎</text>
<text x="1286" y="358" font-size="15" font-weight="700" fill="#64748b" text-anchor="start">⌫</text>
<line x1="270" y1="376" x2="1330" y2="376" stroke="#edf2f7" stroke-width="1"/>
<text x="300" y="406" font-size="13" font-weight="700" fill="#17233c" text-anchor="start">交際費</text>
<circle cx="525" cy="401" r="8" fill="#5aa9f6"/>
<text x="570" y="406" font-size="13" font-weight="500" fill="#526174" text-anchor="start">友人との食事・プレゼントなど</text>
<text x="1240" y="406" font-size="15" font-weight="700" fill="#64748b" text-anchor="start">✎</text>
<text x="1286" y="406" font-size="15" font-weight="700" fill="#64748b" text-anchor="start">⌫</text>
<line x1="270" y1="424" x2="1330" y2="424" stroke="#edf2f7" stroke-width="1"/>
<text x="300" y="454" font-size="13" font-weight="700" fill="#17233c" text-anchor="start">趣味・娯楽</text>
<circle cx="525" cy="449" r="8" fill="#9c72de"/>
<text x="570" y="454" font-size="13" font-weight="500" fill="#526174" text-anchor="start">趣味・娯楽・レジャーなど</text>
<text x="1240" y="454" font-size="15" font-weight="700" fill="#64748b" text-anchor="start">✎</text>
<text x="1286" y="454" font-size="15" font-weight="700" fill="#64748b" text-anchor="start">⌫</text>
<line x1="270" y1="472" x2="1330" y2="472" stroke="#edf2f7" stroke-width="1"/>
<text x="300" y="502" font-size="13" font-weight="700" fill="#17233c" text-anchor="start">通信費</text>
<circle cx="525" cy="497" r="8" fill="#ff8b8b"/>
<text x="570" y="502" font-size="13" font-weight="500" fill="#526174" text-anchor="start">携帯・インターネットなど</text>
<text x="1240" y="502" font-size="15" font-weight="700" fill="#64748b" text-anchor="start">✎</text>
<text x="1286" y="502" font-size="15" font-weight="700" fill="#64748b" text-anchor="start">⌫</text>
<line x1="270" y1="520" x2="1330" y2="520" stroke="#edf2f7" stroke-width="1"/>
<text x="300" y="550" font-size="13" font-weight="700" fill="#17233c" text-anchor="start">その他</text>
<circle cx="525" cy="545" r="8" fill="#94a3b8"/>
<text x="570" y="550" font-size="13" font-weight="500" fill="#526174" text-anchor="start">その他の支出</text>
<text x="1240" y="550" font-size="15" font-weight="700" fill="#64748b" text-anchor="start">✎</text>
<text x="1286" y="550" font-size="15" font-weight="700" fill="#64748b" text-anchor="start">⌫</text>
</svg>