<svg width="1440" height="900" viewBox="0 0 1440 900" fill="none" xmlns="http://www.w3.org/2000/svg">
  <rect width="1440" height="900" fill="#F6F8FC"/>
  <rect x="16" y="16" width="1408" height="868" rx="14" fill="white" stroke="#CFD8E6"/>
  <rect x="16" y="16" width="220" height="868" rx="14" fill="#FBFCFF"/>
  <path d="M236 16V884" stroke="#E6EDF7"/>
  <text x="270" y="72" fill="#17233C" font-family="Inter, sans-serif" font-size="22" font-weight="800">収入設定</text>
  <text x="270" y="102" fill="#64748B" font-family="Inter, sans-serif" font-size="13">家族ごとの毎月収入を登録し、発生日に明細へ自動追加します。</text>

  <rect x="270" y="140" width="530" height="300" rx="8" fill="white" stroke="#E1E8F3"/>
  <text x="294" y="180" fill="#17233C" font-family="Inter, sans-serif" font-size="15" font-weight="800">新しい収入</text>
  <rect x="294" y="204" width="458" height="40" rx="6" fill="white" stroke="#DFE6F2"/>
  <text x="310" y="229" fill="#94A3B8" font-family="Inter, sans-serif" font-size="12">夫、妻、本人など</text>
  <rect x="294" y="264" width="214" height="40" rx="6" fill="white" stroke="#DFE6F2"/>
  <rect x="538" y="264" width="110" height="40" rx="6" fill="white" stroke="#DFE6F2"/>
  <rect x="294" y="324" width="250" height="40" rx="6" fill="white" stroke="#DFE6F2"/>
  <rect x="294" y="384" width="86" height="36" rx="6" fill="#2F7DF6"/>
  <text x="324" y="406" fill="white" font-family="Inter, sans-serif" font-size="12" font-weight="800">追加</text>

  <rect x="830" y="140" width="430" height="300" rx="8" fill="white" stroke="#E1E8F3"/>
  <text x="854" y="180" fill="#17233C" font-family="Inter, sans-serif" font-size="15" font-weight="800">自動追加の扱い</text>
  <text x="854" y="224" fill="#17233C" font-family="Inter, sans-serif" font-size="14" font-weight="700">毎月の明細</text>
  <text x="854" y="250" fill="#64748B" font-family="Inter, sans-serif" font-size="12">発生日を迎えた月の収入明細を重複なく追加します。</text>
  <path d="M854 282H1236" stroke="#EDF2F7"/>
  <text x="854" y="324" fill="#17233C" font-family="Inter, sans-serif" font-size="14" font-weight="700">月別変更</text>
  <text x="854" y="350" fill="#64748B" font-family="Inter, sans-serif" font-size="12">対象月だけ金額と発生日を上書きできます。</text>

  <rect x="270" y="468" width="990" height="260" rx="8" fill="white" stroke="#E1E8F3"/>
  <text x="294" y="508" fill="#17233C" font-family="Inter, sans-serif" font-size="15" font-weight="800">登録済み収入</text>
  <rect x="294" y="536" width="918" height="132" rx="8" fill="white" stroke="#EDF2F7"/>
  <rect x="318" y="560" width="150" height="36" rx="6" fill="white" stroke="#DFE6F2"/>
  <rect x="480" y="560" width="140" height="36" rx="6" fill="white" stroke="#DFE6F2"/>
  <rect x="632" y="560" width="76" height="36" rx="6" fill="white" stroke="#DFE6F2"/>
  <rect x="720" y="560" width="140" height="36" rx="6" fill="white" stroke="#DFE6F2"/>
  <text x="318" y="628" fill="#46566D" font-family="Inter, sans-serif" font-size="12" font-weight="700">￥300,000</text>
  <text x="406" y="628" fill="#46566D" font-family="Inter, sans-serif" font-size="12" font-weight="700">毎月25日</text>
  <rect x="318" y="638" width="110" height="22" rx="4" fill="#16A36A"/>
  <text x="342" y="653" fill="white" font-family="Inter, sans-serif" font-size="12" font-weight="700">給与</text>
</svg>
