<svg xmlns="http://www.w3.org/2000/svg" width="1440" height="900" viewBox="0 0 1440 900">
<defs>
<filter id="shadow" x="-20%" y="-20%" width="140%" height="140%"><feDropShadow dx="0" dy="10" stdDeviation="18" flood-color="#6f7f99" flood-opacity=".12"/></filter>
<style>text{font-family:Inter,Meiryo,"Yu Gothic",sans-serif}.muted{fill:#64748b}.tiny{font-size:12px}.label{font-size:13px;fill:#526174}</style>
</defs>
<rect x="0" y="0" width="1440" height="900" rx="0" fill="#f6f8fc" stroke="none" stroke-width="1" opacity="1"/>
<rect x="16" y="16" width="1408" height="868" rx="14" fill="#fff" stroke="#cfd8e6" stroke-width="1.2" opacity="1"/>
<rect x="16" y="16" width="220" height="868" rx="14" fill="#fbfcff" stroke="#e6edf7" stroke-width="1" opacity="1"/>
<rect x="44" y="48" width="18" height="18" rx="4" fill="#2f7df6" stroke="#2f7df6" stroke-width="1" opacity="1"/><path d="M49 56h8M49 60h6" stroke="#fff" stroke-width="1.6" stroke-linecap="round"/>
<text x="74" y="62" font-size="14" font-weight="700" fill="#17233c" text-anchor="start">かけいぼノート</text>
<text x="62" y="105" font-size="13" font-weight="500" fill="#46566d" text-anchor="start">ダッシュボード</text>
<circle cx="45" cy="100" r="4" fill="#46566d" opacity="0.85"/>
<rect x="34" y="125" width="170" height="34" rx="6" fill="#eaf2ff" stroke="none" stroke-width="1" opacity="1"/>
<text x="62" y="147" font-size="13" font-weight="650" fill="#2f7df6" text-anchor="start">明細一覧</text>
<circle cx="45" cy="142" r="4" fill="#2f7df6" opacity="0.85"/>
<text x="62" y="189" font-size="13" font-weight="500" fill="#46566d" text-anchor="start">アップロード</text>
<circle cx="45" cy="184" r="4" fill="#46566d" opacity="0.85"/>
<text x="62" y="231" font-size="13" font-weight="500" fill="#46566d" text-anchor="start">カテゴリ管理</text>
<circle cx="45" cy="226" r="4" fill="#46566d" opacity="0.85"/>
<text x="62" y="273" font-size="13" font-weight="500" fill="#46566d" text-anchor="start">レポート</text>
<circle cx="45" cy="268" r="4" fill="#46566d" opacity="0.85"/>
<text x="62" y="315" font-size="13" font-weight="500" fill="#46566d" text-anchor="start">設定</text>
<circle cx="45" cy="310" r="4" fill="#46566d" opacity="0.85"/>
<rect x="36" y="710" width="168" height="86" rx="8" fill="#f7faff" stroke="#edf2fb" stroke-width="1" opacity="1"/>
<text x="120" y="746" font-size="11" font-weight="600" fill="#64748b" text-anchor="middle">PDFをアップロードして</text>
<text x="120" y="764" font-size="11" font-weight="600" fill="#64748b" text-anchor="middle">明細を自動で取込み</text>
<rect x="52" y="788" width="136" height="28" rx="5" fill="#2f7df6" stroke="#2f7df6" stroke-width="1" opacity="1"/>
<text x="120" y="806" font-size="11" font-weight="700" fill="#fff" text-anchor="middle">PDFをアップロード</text>
<text x="58" y="846" font-size="12" font-weight="500" fill="#64748b" text-anchor="start">ダークモード</text>
<rect x="166" y="834" width="30" height="16" rx="8" fill="#d7dee9" stroke="none" stroke-width="1" opacity="1"/>
<circle cx="174" cy="842" r="6" fill="#fff"/>
<text x="270" y="68" font-size="22" font-weight="800" fill="#17233c" text-anchor="start">明細一覧</text>
<rect x="270" y="110" width="330" height="36" rx="6" fill="#fff" stroke="#dfe6f2" stroke-width="1" opacity="1"/>
<text x="288" y="133" font-size="12" font-weight="500" fill="#94a3b8" text-anchor="start">店名、メモ、カテゴリで検索</text>
<rect x="620" y="110" width="190" height="36" rx="6" fill="#fff" stroke="#dfe6f2" stroke-width="1" opacity="1"/>
<text x="640" y="133" font-size="12" font-weight="600" fill="#64748b" text-anchor="start">期間を選択</text>
<rect x="830" y="110" width="180" height="36" rx="6" fill="#fff" stroke="#dfe6f2" stroke-width="1" opacity="1"/>
<text x="850" y="133" font-size="12" font-weight="600" fill="#64748b" text-anchor="start">すべてのカテゴリ</text>
<rect x="1085" y="110" width="132" height="36" rx="6" fill="#fff" stroke="#dfe6f2" stroke-width="1" opacity="1"/>
<text x="1151" y="133" font-size="12" font-weight="700" fill="#526174" text-anchor="middle">エクスポート</text>
<rect x="1235" y="110" width="132" height="36" rx="6" fill="#2f7df6" stroke="#2f7df6" stroke-width="1" opacity="1"/>
<text x="1301" y="133" font-size="12" font-weight="800" fill="#fff" text-anchor="middle">＋ 手動で追加</text>
<rect x="270" y="170" width="1080" height="382" rx="8" fill="#fff" stroke="#e7edf6" stroke-width="1" opacity="1"/>
<text x="288" y="200" font-size="12" font-weight="800" fill="#526174" text-anchor="start">日付</text>
<text x="418" y="200" font-size="12" font-weight="800" fill="#526174" text-anchor="start">店名</text>
<text x="648" y="200" font-size="12" font-weight="800" fill="#526174" text-anchor="start">カテゴリ</text>
<text x="808" y="200" font-size="12" font-weight="800" fill="#526174" text-anchor="start">金額</text>
<text x="948" y="200" font-size="12" font-weight="800" fill="#526174" text-anchor="start">支払い方法</text>
<text x="1108" y="200" font-size="12" font-weight="800" fill="#526174" text-anchor="start">メモ</text>
<text x="1292" y="200" font-size="12" font-weight="800" fill="#526174" text-anchor="start">操作</text>
<line x1="270" y1="216" x2="1350" y2="216" stroke="#edf2f7" stroke-width="1"/>
<text x="288" y="241" font-size="12" font-weight="600" fill="#17233c" text-anchor="start">2026/04/28</text>
<text x="418" y="241" font-size="12" font-weight="600" fill="#17233c" text-anchor="start">セブン-イレブン</text>
<rect x="643" y="226" width="54" height="20" rx="4" fill="#ff6b7a" stroke="none" stroke-width="1" opacity="0.16"/>
<text x="648" y="241" font-size="12" font-weight="600" fill="#ff6b7a" text-anchor="start">食費</text>
<text x="808" y="241" font-size="12" font-weight="600" fill="#17233c" text-anchor="start">¥842</text>
<text x="948" y="241" font-size="12" font-weight="600" fill="#17233c" text-anchor="start">クレジットカード</text>
<text x="1108" y="241" font-size="12" font-weight="600" fill="#17233c" text-anchor="start">朝食・おにぎり</text>
<text x="1278" y="241" font-size="15" font-weight="700" fill="#64748b" text-anchor="start">✎</text>
<text x="1316" y="241" font-size="15" font-weight="700" fill="#64748b" text-anchor="start">⌫</text>
<line x1="270" y1="258" x2="1350" y2="258" stroke="#edf2f7" stroke-width="1"/>
<text x="288" y="283" font-size="12" font-weight="600" fill="#17233c" text-anchor="start">2026/04/27</text>
<text x="418" y="283" font-size="12" font-weight="600" fill="#17233c" text-anchor="start">Amazon.co.jp</text>
<rect x="643" y="268" width="54" height="20" rx="4" fill="#eea932" stroke="none" stroke-width="1" opacity="0.16"/>
<text x="648" y="283" font-size="12" font-weight="600" fill="#eea932" text-anchor="start">日用品</text>
<text x="808" y="283" font-size="12" font-weight="600" fill="#17233c" text-anchor="start">¥3,200</text>
<text x="948" y="283" font-size="12" font-weight="600" fill="#17233c" text-anchor="start">クレジットカード</text>
<text x="1108" y="283" font-size="12" font-weight="600" fill="#17233c" text-anchor="start">洗剤・日用品</text>
<text x="1278" y="283" font-size="15" font-weight="700" fill="#64748b" text-anchor="start">✎</text>
<text x="1316" y="283" font-size="15" font-weight="700" fill="#64748b" text-anchor="start">⌫</text>
<line x1="270" y1="300" x2="1350" y2="300" stroke="#edf2f7" stroke-width="1"/>
<text x="288" y="325" font-size="12" font-weight="600" fill="#17233c" text-anchor="start">2026/04/27</text>
<text x="418" y="325" font-size="12" font-weight="600" fill="#17233c" text-anchor="start">JR東日本</text>
<rect x="643" y="310" width="54" height="20" rx="4" fill="#38a7e0" stroke="none" stroke-width="1" opacity="0.16"/>
<text x="648" y="325" font-size="12" font-weight="600" fill="#38a7e0" text-anchor="start">交通費</text>
<text x="808" y="325" font-size="12" font-weight="600" fill="#17233c" text-anchor="start">¥1,320</text>
<text x="948" y="325" font-size="12" font-weight="600" fill="#17233c" text-anchor="start">Suica</text>
<text x="1108" y="325" font-size="12" font-weight="600" fill="#17233c" text-anchor="start">通勤</text>
<text x="1278" y="325" font-size="15" font-weight="700" fill="#64748b" text-anchor="start">✎</text>
<text x="1316" y="325" font-size="15" font-weight="700" fill="#64748b" text-anchor="start">⌫</text>
<line x1="270" y1="342" x2="1350" y2="342" stroke="#edf2f7" stroke-width="1"/>
<text x="288" y="367" font-size="12" font-weight="600" fill="#17233c" text-anchor="start">2026/04/26</text>
<text x="418" y="367" font-size="12" font-weight="600" fill="#17233c" text-anchor="start">Starbucks</text>
<rect x="643" y="352" width="54" height="20" rx="4" fill="#35b979" stroke="none" stroke-width="1" opacity="0.16"/>
<text x="648" y="367" font-size="12" font-weight="600" fill="#35b979" text-anchor="start">飲食費</text>
<text x="808" y="367" font-size="12" font-weight="600" fill="#17233c" text-anchor="start">¥650</text>
<text x="948" y="367" font-size="12" font-weight="600" fill="#17233c" text-anchor="start">クレジットカード</text>
<text x="1108" y="367" font-size="12" font-weight="600" fill="#17233c" text-anchor="start">カフェラテ</text>
<text x="1278" y="367" font-size="15" font-weight="700" fill="#64748b" text-anchor="start">✎</text>
<text x="1316" y="367" font-size="15" font-weight="700" fill="#64748b" text-anchor="start">⌫</text>
<line x1="270" y1="384" x2="1350" y2="384" stroke="#edf2f7" stroke-width="1"/>
<text x="288" y="409" font-size="12" font-weight="600" fill="#17233c" text-anchor="start">2026/04/25</text>
<text x="418" y="409" font-size="12" font-weight="600" fill="#17233c" text-anchor="start">楽天モバイル</text>
<rect x="643" y="394" width="54" height="20" rx="4" fill="#9c72de" stroke="none" stroke-width="1" opacity="0.16"/>
<text x="648" y="409" font-size="12" font-weight="600" fill="#9c72de" text-anchor="start">通信費</text>
<text x="808" y="409" font-size="12" font-weight="600" fill="#17233c" text-anchor="start">¥1,078</text>
<text x="948" y="409" font-size="12" font-weight="600" fill="#17233c" text-anchor="start">クレジットカード</text>
<text x="1108" y="409" font-size="12" font-weight="600" fill="#17233c" text-anchor="start">スマホ料金</text>
<text x="1278" y="409" font-size="15" font-weight="700" fill="#64748b" text-anchor="start">✎</text>
<text x="1316" y="409" font-size="15" font-weight="700" fill="#64748b" text-anchor="start">⌫</text>
<line x1="270" y1="426" x2="1350" y2="426" stroke="#edf2f7" stroke-width="1"/>
<text x="288" y="451" font-size="12" font-weight="600" fill="#17233c" text-anchor="start">2026/04/25</text>
<text x="418" y="451" font-size="12" font-weight="600" fill="#17233c" text-anchor="start">サミットストア</text>
<rect x="643" y="436" width="54" height="20" rx="4" fill="#ff6b7a" stroke="none" stroke-width="1" opacity="0.16"/>
<text x="648" y="451" font-size="12" font-weight="600" fill="#ff6b7a" text-anchor="start">食費</text>
<text x="808" y="451" font-size="12" font-weight="600" fill="#17233c" text-anchor="start">¥1,518</text>
<text x="948" y="451" font-size="12" font-weight="600" fill="#17233c" text-anchor="start">クレジットカード</text>
<text x="1108" y="451" font-size="12" font-weight="600" fill="#17233c" text-anchor="start">食材・日用品</text>
<text x="1278" y="451" font-size="15" font-weight="700" fill="#64748b" text-anchor="start">✎</text>
<text x="1316" y="451" font-size="15" font-weight="700" fill="#64748b" text-anchor="start">⌫</text>
<line x1="270" y1="468" x2="1350" y2="468" stroke="#edf2f7" stroke-width="1"/>
<text x="288" y="493" font-size="12" font-weight="600" fill="#17233c" text-anchor="start">2026/04/24</text>
<text x="418" y="493" font-size="12" font-weight="600" fill="#17233c" text-anchor="start">Uber</text>
<rect x="643" y="478" width="54" height="20" rx="4" fill="#38a7e0" stroke="none" stroke-width="1" opacity="0.16"/>
<text x="648" y="493" font-size="12" font-weight="600" fill="#38a7e0" text-anchor="start">交通費</text>
<text x="808" y="493" font-size="12" font-weight="600" fill="#17233c" text-anchor="start">¥2,340</text>
<text x="948" y="493" font-size="12" font-weight="600" fill="#17233c" text-anchor="start">クレジットカード</text>
<text x="1108" y="493" font-size="12" font-weight="600" fill="#17233c" text-anchor="start">移動</text>
<text x="1278" y="493" font-size="15" font-weight="700" fill="#64748b" text-anchor="start">✎</text>
<text x="1316" y="493" font-size="15" font-weight="700" fill="#64748b" text-anchor="start">⌫</text>
<line x1="270" y1="510" x2="1350" y2="510" stroke="#edf2f7" stroke-width="1"/>
<text x="288" y="535" font-size="12" font-weight="600" fill="#17233c" text-anchor="start">2026/04/24</text>
<text x="418" y="535" font-size="12" font-weight="600" fill="#17233c" text-anchor="start">無印良品</text>
<rect x="643" y="520" width="54" height="20" rx="4" fill="#eea932" stroke="none" stroke-width="1" opacity="0.16"/>
<text x="648" y="535" font-size="12" font-weight="600" fill="#eea932" text-anchor="start">日用品</text>
<text x="808" y="535" font-size="12" font-weight="600" fill="#17233c" text-anchor="start">¥2,980</text>
<text x="948" y="535" font-size="12" font-weight="600" fill="#17233c" text-anchor="start">クレジットカード</text>
<text x="1108" y="535" font-size="12" font-weight="600" fill="#17233c" text-anchor="start">収納用品</text>
<text x="1278" y="535" font-size="15" font-weight="700" fill="#64748b" text-anchor="start">✎</text>
<text x="1316" y="535" font-size="15" font-weight="700" fill="#64748b" text-anchor="start">⌫</text>
<text x="612" y="707" font-size="12" font-weight="700" fill="#526174" text-anchor="middle">‹</text>
<rect x="637" y="688" width="26" height="26" rx="5" fill="#2f7df6" stroke="#2f7df6" stroke-width="1" opacity="1"/>
<text x="650" y="707" font-size="12" font-weight="800" fill="#fff" text-anchor="middle">1</text>
<text x="688" y="707" font-size="12" font-weight="700" fill="#526174" text-anchor="middle">2</text>
<text x="726" y="707" font-size="12" font-weight="700" fill="#526174" text-anchor="middle">3</text>
<text x="764" y="707" font-size="12" font-weight="700" fill="#526174" text-anchor="middle">4</text>
<text x="802" y="707" font-size="12" font-weight="700" fill="#526174" text-anchor="middle">5</text>
<text x="840" y="707" font-size="12" font-weight="700" fill="#526174" text-anchor="middle">…</text>
<text x="878" y="707" font-size="12" font-weight="700" fill="#526174" text-anchor="middle">10</text>
<text x="916" y="707" font-size="12" font-weight="700" fill="#526174" text-anchor="middle">›</text>
<rect x="16" y="16" width="1408" height="868" rx="14" fill="#0f172a" stroke="none" stroke-width="1" opacity="0.58"/>
<rect x="365" y="135" width="470" height="600" rx="12" fill="#fff" stroke="#dfe6f2" stroke-width="1.2" opacity="1"/>
<text x="405" y="185" font-size="22" font-weight="800" fill="#17233c" text-anchor="start">明細を編集</text>
<text x="792" y="185" font-size="24" font-weight="500" fill="#64748b" text-anchor="start">×</text>
<text x="405" y="230" font-size="14" font-weight="700" fill="#526174" text-anchor="start">日付</text>
<rect x="555" y="206" width="235" height="36" rx="5" fill="#fff" stroke="#dfe6f2" stroke-width="1" opacity="1"/>
<text x="572" y="229" font-size="13" font-weight="600" fill="#17233c" text-anchor="start">2026/04/28</text>
<text x="405" y="300" font-size="14" font-weight="700" fill="#526174" text-anchor="start">店名</text>
<rect x="555" y="276" width="235" height="36" rx="5" fill="#fff" stroke="#dfe6f2" stroke-width="1" opacity="1"/>
<text x="572" y="299" font-size="13" font-weight="600" fill="#17233c" text-anchor="start">セブン-イレブン</text>
<text x="405" y="370" font-size="14" font-weight="700" fill="#526174" text-anchor="start">カテゴリ</text>
<rect x="555" y="346" width="235" height="36" rx="5" fill="#fff" stroke="#dfe6f2" stroke-width="1" opacity="1"/>
<text x="572" y="369" font-size="13" font-weight="600" fill="#17233c" text-anchor="start">食費</text>
<text x="405" y="440" font-size="14" font-weight="700" fill="#526174" text-anchor="start">金額</text>
<rect x="555" y="416" width="235" height="36" rx="5" fill="#fff" stroke="#dfe6f2" stroke-width="1" opacity="1"/>
<text x="572" y="439" font-size="13" font-weight="600" fill="#17233c" text-anchor="start">842</text>
<text x="405" y="510" font-size="14" font-weight="700" fill="#526174" text-anchor="start">支払い方法</text>
<rect x="555" y="486" width="235" height="36" rx="5" fill="#fff" stroke="#dfe6f2" stroke-width="1" opacity="1"/>
<text x="572" y="509" font-size="13" font-weight="600" fill="#17233c" text-anchor="start">クレジットカード</text>
<text x="405" y="580" font-size="14" font-weight="700" fill="#526174" text-anchor="start">メモ</text>
<rect x="555" y="556" width="235" height="36" rx="5" fill="#fff" stroke="#dfe6f2" stroke-width="1" opacity="1"/>
<text x="572" y="579" font-size="13" font-weight="600" fill="#17233c" text-anchor="start">朝食・おにぎり</text>
<rect x="555" y="660" width="100" height="40" rx="6" fill="#fff" stroke="#dfe6f2" stroke-width="1" opacity="1"/>
<text x="605" y="685" font-size="13" font-weight="800" fill="#526174" text-anchor="middle">キャンセル</text>
<rect x="675" y="660" width="115" height="40" rx="6" fill="#2f7df6" stroke="#2f7df6" stroke-width="1" opacity="1"/>
<text x="733" y="685" font-size="13" font-weight="800" fill="#fff" text-anchor="middle">保存</text>
</svg>