<svg width="64" height="64" viewBox="0 0 64 64" fill="none" xmlns="http://www.w3.org/2000/svg">
  <rect width="64" height="64" rx="18" fill="#2F7DF6"/>
  <path d="M18 16C18 14.8954 18.8954 14 20 14H42.5C45.5376 14 48 16.4624 48 19.5V44.5C48 47.5376 45.5376 50 42.5 50H20C18.8954 50 18 49.1046 18 48V16Z" fill="white"/>
  <path d="M22 20.5C22 19.6716 22.6716 19 23.5 19H40.5C41.3284 19 42 19.6716 42 20.5V43.5C42 44.3284 41.3284 45 40.5 45H23.5C22.6716 45 22 44.3284 22 43.5V20.5Z" fill="#EAF2FF"/>
  <path d="M25 19V45" stroke="#C8DAFA" stroke-width="2.5" stroke-linecap="round"/>
  <path d="M33 25L29.5 30.5H36.5L33 36" stroke="#2F7DF6" stroke-width="3.2" stroke-linecap="round" stroke-linejoin="round"/>
  <path d="M29.5 28H36.5" stroke="#2F7DF6" stroke-width="2.8" stroke-linecap="round"/>
  <path d="M29.5 33H36.5" stroke="#2F7DF6" stroke-width="2.8" stroke-linecap="round"/>
  <path d="M44.5 21V43" stroke="#BFDBFE" stroke-width="2" stroke-linecap="round"/>
</svg>
